<?xml version="1.0" encoding="UTF-8"?>
<svg version="1.1" xmlns="http://www.w3.org/2000/svg" width="1080" height="1080">
<path d="M0 0 C5.86783204 4.19271461 11.16629139 8.76889682 16.375 13.75 C17.4875415 14.80670898 17.4875415 14.80670898 18.62255859 15.88476562 C26.06742959 22.97697629 33.47380468 30.06180688 40.1640625 37.8828125 C42.3520617 40.40599455 44.61293113 42.85554519 46.875 45.3125 C51.7919433 50.71670795 56.46088689 56.27662579 61 62 C61.51578613 62.64855957 62.03157227 63.29711914 62.56298828 63.96533203 C115.31764437 130.49134506 153.77323092 209.53925403 161 295 C161.11085938 296.19753906 161.22171875 297.39507813 161.3359375 298.62890625 C166.18788773 360.45848821 152.11174729 422.43740981 112 471 C108.47054779 475.12998587 104.75934507 479.07986066 101 483 C100.49597656 483.53125488 99.99195313 484.06250977 99.47265625 484.60986328 C71.8734218 513.5770149 35.46049254 534.12110123 -5.19046021 536.10700989 C-7.54926643 536.16360349 -9.9061711 536.19081643 -12.265625 536.203125 C-13.13910583 536.20882507 -14.01258667 536.21452515 -14.91253662 536.22039795 C-16.75808523 536.22979956 -18.60365026 536.23636255 -20.44921875 536.24023438 C-23.20084182 536.2498286 -25.9516802 536.28085146 -28.703125 536.3125 C-44.36018467 536.4062317 -59.75035753 534.74862118 -74.9375 530.8125 C-76.14635864 530.50276245 -76.14635864 530.50276245 -77.37963867 530.18676758 C-83.64215659 528.5090812 -89.74048713 526.45538007 -95.8125 524.1875 C-96.69800537 523.85717773 -97.58351074 523.52685547 -98.49584961 523.18652344 C-102.57656482 521.59245243 -106.29539409 519.93879741 -109.91796875 517.4609375 C-115.92182308 513.2273644 -115.92182308 513.2273644 -123.01855469 512.18212891 C-126.27108239 512.98370325 -129.3203044 514.15299441 -132.42724609 515.39648438 C-142.11153389 519.2708733 -151.99800981 521.6606084 -162.125 524.0625 C-163.9231178 524.49315319 -165.72121355 524.92389844 -167.51928711 525.35473633 C-172.67593804 526.58529108 -177.83719797 527.79555148 -183 529 C-184.10338715 529.25837646 -184.10338715 529.25837646 -185.22906494 529.52197266 C-189.62829374 530.55154419 -194.03105098 531.56416879 -198.4375 532.5625 C-200.00491943 532.92130249 -200.00491943 532.92130249 -201.60400391 533.28735352 C-207.72218689 534.6417257 -213.7504202 535.53310199 -220 536 C-220.33 534.68 -220.66 533.36 -221 532 C-214.08562189 527.02632415 -206.82053218 523.30325642 -199.125 519.6875 C-197.91876836 519.11342484 -196.71288047 518.53862689 -195.50732422 517.96313477 C-190.27043986 515.4677429 -185.0203829 513.00200393 -179.75 510.578125 C-129.23894191 487.2693491 -90.06487669 456.37886278 -69.37365723 404.10455322 C-53.29985679 363.63945607 -53.29985679 363.63945607 -40 357 C-38.68 357 -37.36 357 -36 357 C-35.90501221 357.76328613 -35.81002441 358.52657227 -35.7121582 359.31298828 C-34.06296736 372.37144777 -32.39108366 385.39748059 -29.5 398.25 C-29.31091064 399.10996582 -29.12182129 399.96993164 -28.92700195 400.85595703 C-26.97534191 409.1282507 -24.73639969 416.85801513 -17.40625 421.78125 C-5.59546686 427.76333497 6.58078324 426.57424383 18.81494141 422.77050781 C32.6050357 417.90776618 50.11563335 408.10767074 56.953125 394.70703125 C68.54316945 364.73725212 53.82093539 325.94345535 41.73828125 298.02734375 C35.44209275 282.50583812 35.44209275 282.50583812 26 269 C25.87693985 269.64257751 25.7538797 270.28515503 25.62709045 270.94720459 C24.34689554 277.63075153 23.06513842 284.31399751 21.7824707 290.99707031 C21.30387888 293.49178495 20.82568643 295.98657623 20.34790039 298.48144531 C19.66136796 302.06595731 18.97340326 305.65019187 18.28515625 309.234375 C18.07157974 310.35116638 17.85800323 311.46795776 17.63795471 312.61859131 C17.43782272 313.65936829 17.23769073 314.70014526 17.03149414 315.77246094 C16.85606583 316.68735291 16.68063751 317.60224487 16.49989319 318.54486084 C16.05785044 320.71587756 15.55798509 322.85626442 15 325 C14.01 324.67 13.02 324.34 12 324 C9.92888468 319.45491183 9.69862299 315.11521118 9.77441406 310.20068359 C9.78405371 309.08817513 9.78405371 309.08817513 9.79388809 307.95319176 C9.92443209 299.84921406 10.72718036 291.83960594 11.609375 283.7890625 C11.77879902 282.1799481 11.947366 280.57074328 12.11514282 278.9614563 C12.55938863 274.71864711 13.01365532 270.47697175 13.47008514 266.23545837 C14.22113696 259.23122308 14.95296194 252.22493018 15.68780136 245.21897888 C15.86969966 243.48628464 16.05196258 241.75362864 16.23459244 240.02101135 C17.34548167 229.48072358 18.410856 218.93987944 19.3515625 208.3828125 C19.44405273 207.34778595 19.53654297 206.3127594 19.63183594 205.24636841 C20.03761339 200.66742352 20.43009454 196.08770367 20.80761719 191.50634766 C20.94190572 189.95734362 21.07633467 188.40835175 21.2109375 186.859375 C21.31712402 185.56483398 21.42331055 184.27029297 21.53271484 182.93652344 C22 180 22 180 24 178 C33.05968967 195.89720712 41.60868283 213.82975157 48.8125 232.5625 C49.15216797 233.44030121 49.49183594 234.31810242 49.84179688 235.22250366 C63.08123562 269.45404947 75.39354787 303.77974211 82 340 C82.24556641 341.27472168 82.24556641 341.27472168 82.49609375 342.57519531 C88.07266677 372.01350951 88.11404736 404.20753099 71.0546875 429.93359375 C69.1421221 432.41528286 67.13847551 434.71103918 65 437 C64.26265625 437.82757812 63.5253125 438.65515625 62.765625 439.5078125 C47.73165144 455.57352934 23.85000688 467.888317 1.81396484 468.97680664 C-10.76996327 469.31645999 -20.63136031 465.95024299 -30.25 457.8125 C-40.77875128 447.79533382 -45.49330223 434.38581051 -46 420 C-46.03996094 419.08605469 -46.07992187 418.17210937 -46.12109375 417.23046875 C-46.27659642 410.10478777 -45.6943661 403.13558023 -44.98828125 396.05078125 C-44.89373657 395.08160767 -44.79919189 394.11243408 -44.70178223 393.1138916 C-44.4701106 390.74236348 -44.2361293 388.37108771 -44 386 C-44.18712555 386.6535144 -44.3742511 387.30702881 -44.56704712 387.98034668 C-46.35406439 394.21688614 -48.14744733 400.45155787 -49.94754982 406.6843338 C-50.87221721 409.88675186 -51.79391578 413.08995261 -52.71142578 416.29443359 C-63.09757803 452.55386553 -63.09757803 452.55386553 -70.3125 465.75 C-70.69365967 466.45406982 -71.07481934 467.15813965 -71.4675293 467.88354492 C-80.9006699 484.89574612 -93.44981826 497.17126358 -110 507 C-110.99 507.66 -111.98 508.32 -113 509 C-63.01268864 522.9898117 -9.22842684 519.20751495 36.53515625 493.62890625 C49.07082398 486.36770542 60.28880301 477.72454102 71 468 C71.67289063 467.39929688 72.34578125 466.79859375 73.0390625 466.1796875 C102.79375524 438.11720477 118.30875656 395.04622864 120 355 C121.90019551 272.46025735 77.703095 186.36096302 21 107 C20.30261719 106.17113281 19.60523438 105.34226562 18.88671875 104.48828125 C15.23737229 100.22040149 11.87895909 96.80540147 7 94 C6.94682649 94.61702475 6.89365297 95.23404949 6.83886814 95.86977196 C6.30430978 101.66984042 5.48855998 107.32555263 4.36108398 113.03759766 C4.19822403 113.88188828 4.03536407 114.72617889 3.86756897 115.59605408 C3.33141627 118.36958481 2.78883886 121.14181495 2.24609375 123.9140625 C1.86276163 125.88895769 1.47979924 127.86392468 1.09718323 129.83895874 C0.29204528 133.99018042 -0.51599958 138.14082124 -1.32641602 142.29101562 C-2.33966253 147.47992692 -3.34824257 152.66972874 -4.35486794 157.85992813 C-9.47538178 184.25897996 -14.69333955 210.63775524 -20 237 C-21.32 237 -22.64 237 -24 237 C-29.40600965 222.58397426 -26.59951474 207.19051765 -24.72094727 192.35107422 C-24.4756891 190.37400355 -24.23102543 188.39685906 -23.98690796 186.41964722 C-23.32548658 181.07613204 -22.65583944 175.73367672 -21.98470426 170.39137411 C-21.28226515 164.78814598 -20.5875762 159.1839572 -19.89207458 153.5798645 C-18.57404137 142.9690348 -17.24927392 132.35905755 -15.92197698 121.74938309 C-14.2672365 108.51981909 -12.6207827 95.28922604 -10.97460938 82.05859375 C-10.3976798 77.42195894 -9.82069676 72.78533078 -9.24363708 68.14871216 C-9.10380793 67.02518345 -8.96397878 65.90165474 -8.81991237 64.74407971 C-7.85683213 57.00768545 -6.89138326 49.27158905 -5.92494202 41.53561401 C-5.54097671 38.46035792 -5.15705374 35.38509653 -4.77314377 32.30983353 C-4.53351515 30.39140847 -4.29367075 28.47301035 -4.05359077 26.55464172 C-3.72497503 23.92881826 -3.39709125 21.30290431 -3.0693512 18.67697144 C-2.9278099 17.54859244 -2.9278099 17.54859244 -2.78340918 16.3974179 C-2.69433324 15.68263625 -2.6052573 14.96785459 -2.51348209 14.23141289 C-2.42769465 13.54424871 -2.3419072 12.85708454 -2.25352013 12.1490972 C-2.07077125 10.59992986 -1.90375918 9.0488774 -1.74671924 7.49689317 C-1.66387152 6.67958089 -1.58102381 5.86226861 -1.49566555 5.02018929 C-1.42410384 4.27477446 -1.35254212 3.52935963 -1.27881187 2.76135647 C-1 1 -1 1 0 0 Z M-43 380 C-42 382 -42 382 -42 382 Z " fill="#FAFBFC" transform="translate(583,257)"/>
<path d="M0 0 C20.72836798 19.18435547 35.89940058 47.0640558 49.91015625 71.31640625 C50.43754395 72.22310059 50.96493164 73.12979492 51.50830078 74.06396484 C74.82469484 114.30898236 93.10078472 156.84298078 110.8505249 199.75646973 C111.86526939 202.20796523 112.88264219 204.65835173 113.90087891 207.10839844 C115.40897754 210.73914359 116.90922407 214.3730272 118.40258789 218.00985718 C118.93530121 219.30518394 119.4700192 220.59968874 120.00708008 221.89321899 C122.88325389 228.83016692 125.51252003 235.81884466 127.828125 242.9609375 C128.05317215 243.63533371 128.2782193 244.30972992 128.51008606 245.00456238 C129.58342718 248.42472362 130.30110354 250.91637274 128.91015625 254.31640625 C127.26015625 254.64640625 125.61015625 254.97640625 123.91015625 255.31640625 C119.93921 249.1377596 116.4215434 242.7981917 112.97265625 236.31640625 C107.80033485 226.67613037 102.40978514 217.18828138 96.86157227 207.76000977 C93.64416688 202.29253231 90.48178797 196.80438596 87.41015625 191.25390625 C65.9964966 152.79282058 40.64415075 117.19228486 13.91015625 82.31640625 C12.96090151 81.07554836 12.01167867 79.83466608 11.0625 78.59375 C1.38204673 65.95512075 -8.50638036 53.4975068 -18.578125 41.16894531 C-19.99154609 39.43686533 -21.40085462 37.70154269 -22.80859375 35.96484375 C-23.9996875 34.49917969 -23.9996875 34.49917969 -25.21484375 33.00390625 C-25.89804687 32.16214844 -26.58125 31.32039063 -27.28515625 30.453125 C-28.81565127 28.6410454 -30.37986062 26.95735279 -32.08984375 25.31640625 C-40.23619366 33.78926317 -47.44444226 42.74234993 -54.47119141 52.15380859 C-56.0353465 54.2435953 -57.61285032 56.32249235 -59.1953125 58.3984375 C-66.12248924 67.51062206 -72.69629089 76.82356015 -79.08984375 86.31640625 C-79.5585791 87.00927734 -80.02731445 87.70214844 -80.51025391 88.41601562 C-93.30286142 107.34301394 -105.48340945 126.64070184 -117.08984375 146.31640625 C-117.6307666 147.23083496 -118.17168945 148.14526367 -118.72900391 149.08740234 C-144.21903343 192.2373831 -168.27103753 236.65128942 -189.54931641 282.04394531 C-191.00487844 285.13591893 -192.47295068 288.22154738 -193.94549561 291.30545044 C-209.73598934 324.37593959 -224.40089933 357.90338352 -238.93408203 391.54272461 C-255.20174929 429.17461844 -255.20174929 429.17461844 -261.46484375 440.87890625 C-261.87605469 441.66974609 -262.28726562 442.46058594 -262.7109375 443.27539062 C-266.19459168 449.8562486 -266.19459168 449.8562486 -269.08984375 452.31640625 C-269.74984375 452.31640625 -270.40984375 452.31640625 -271.08984375 452.31640625 C-272.33868629 446.3007399 -271.70408217 441.37162523 -270.52734375 435.37890625 C-270.2499939 433.92991943 -270.2499939 433.92991943 -269.96704102 432.45166016 C-263.24395186 398.27159609 -252.24117089 364.91499572 -240.08984375 332.31640625 C-239.67958954 331.21486206 -239.67958954 331.21486206 -239.26104736 330.09106445 C-226.15104773 294.9557806 -211.69043322 260.41659236 -196.08984375 226.31640625 C-195.58984863 225.21876953 -195.08985352 224.12113281 -194.57470703 222.99023438 C-178.18753468 187.07285437 -161.01292072 151.40700753 -141.40234375 117.12890625 C-139.1232481 113.144549 -136.87597048 109.14448499 -134.65234375 105.12890625 C-118.68550373 76.30231114 -101.54662998 47.93872934 -82.08984375 21.31640625 C-81.579375 20.61128906 -81.06890625 19.90617187 -80.54296875 19.1796875 C-70.52231365 5.36408133 -60.19909523 -8.06946793 -42.32421875 -11.46875 C-26.34980029 -13.00475177 -12.63313854 -10.17735086 0 0 Z " fill="#FAFBFC" transform="translate(603.08984375,165.68359375)"/>
<path d="M0 0 C0.66 0 1.32 0 2 0 C18.28160975 30.97619335 33.18798742 62.02687137 45 95 C45.34643555 95.96083496 45.69287109 96.92166992 46.04980469 97.91162109 C49.61082418 107.87854675 52.63555519 117.93120838 55.25 128.1875 C55.48436768 129.10055908 55.71873535 130.01361816 55.96020508 130.9543457 C56.6968635 133.95992262 57.36286194 136.97169398 58 140 C58.13343811 140.62763245 58.26687622 141.25526489 58.40435791 141.9019165 C60.89588851 153.95872502 61.46998863 165.73004173 61.39111328 178.02246094 C61.37501509 180.99721096 61.39106878 183.97060297 61.41015625 186.9453125 C61.42749847 201.96982288 60.38194507 216.90587564 55.3125 231.1875 C55.05686279 231.92323242 54.80122559 232.65896484 54.5378418 233.41699219 C43.97609994 262.64358276 20.30807305 285.57802201 -7.4609375 298.93359375 C-14.57839089 301.92292417 -21.2934663 303.43621889 -29 303 C-29.77734375 300.8046875 -29.77734375 300.8046875 -30 298 C-28.19140625 295.5703125 -28.19140625 295.5703125 -25.5625 293.125 C-24.17611328 291.81789063 -24.17611328 291.81789063 -22.76171875 290.484375 C-19.84154104 287.85745418 -16.90123276 285.25932883 -13.92578125 282.6953125 C-6.82999449 276.44871726 -0.82152326 269.43064148 5 262 C5.6703125 261.15824219 6.340625 260.31648438 7.03125 259.44921875 C28.99501954 230.7307185 35.47647145 195.00413456 31.34375 159.609375 C28.57667963 139.88504817 22.56072664 121.050601 14.00390625 103.10644531 C12.96636448 100.9294243 11.94969156 98.74359986 10.9375 96.5546875 C9.30564579 93.02975341 7.65793044 89.51274011 6 86 C5.67 86 5.34 86 5 86 C4.89168854 86.7044223 4.78337708 87.4088446 4.67178345 88.13461304 C3.64451382 94.81297511 2.6150712 101.49099909 1.58326149 108.16866112 C1.05303013 111.60070497 0.52360375 115.03286876 -0.00390625 118.46533203 C-0.6121051 122.42258553 -1.22394285 126.37926924 -1.8359375 130.3359375 C-2.02247894 131.55300385 -2.20902039 132.77007019 -2.4012146 134.02401733 C-3.44012996 140.72050881 -4.59632656 147.36991567 -6 154 C-7.32 154.33 -8.64 154.66 -10 155 C-15.79196004 140.39418771 -14.18760069 125.20913101 -13 109.8125 C-12.94086426 109.02983765 -12.88172852 108.24717529 -12.82080078 107.4407959 C-11.38317363 88.82571917 -9.18199553 70.28921453 -7 51.75 C-6.91300842 51.00790409 -6.82601685 50.26580818 -6.73638916 49.50122452 C-4.79624127 32.95328919 -2.81866016 16.42616915 0 0 Z " fill="#FAFBFC" transform="translate(484,353)"/>
<path d="M0 0 C2.69081311 9.48696102 3.61567015 18.41682477 3.66577148 28.23242188 C3.68776162 30.52730274 3.76850031 32.8159128 3.84960938 35.109375 C4.0443211 45.87375397 4.0443211 45.87375397 1.27587891 48.859375 C-0.85546875 50.03125 -0.85546875 50.03125 -2.98120117 50.70507812 C-6.31726485 52.84493563 -7.0079793 56.34888661 -8 60 C-8.61879249 62.89049252 -9.04313331 65.78515046 -9.4296875 68.71484375 C-9.67042559 70.38869307 -9.91131609 72.06252048 -10.15234375 73.73632812 C-10.51367395 76.3218086 -10.87094176 78.90777835 -11.22412109 81.49438477 C-15.10285294 109.62195276 -23.60216014 141.25873897 -47.1484375 159.4296875 C-77.51545814 180.7056062 -117.27631858 181.90516085 -153 181 C-153 180.34 -153 179.68 -153 179 C-151.82050781 178.57332031 -150.64101563 178.14664063 -149.42578125 177.70703125 C-120.38395252 167.01975556 -91.08946913 154.77605965 -67 135 C-65.99453125 134.17886719 -64.9890625 133.35773438 -63.953125 132.51171875 C-50.08389165 120.54264872 -40.29874377 105.079461 -32.3125 88.75 C-31.95591309 88.03690674 -31.59932617 87.32381348 -31.23193359 86.58911133 C-23.80866934 70.91720369 -20.73544947 53.05443348 -16.80224609 36.27294922 C-8.27622097 0 -8.27622097 0 0 0 Z " fill="#FAFBFC" transform="translate(471,525)"/>
<path d="M0 0 C0.66 0 1.32 0 2 0 C2.31453125 0.88300781 2.6290625 1.76601563 2.953125 2.67578125 C3.38109375 3.87589844 3.8090625 5.07601563 4.25 6.3125 C4.47381348 6.94897461 4.69762695 7.58544922 4.92822266 8.24121094 C5.97497932 11.20417772 7.0515832 14.12415212 8.2578125 17.02734375 C10.82782666 23.29063001 11.84164309 28.36290964 10 35 C8.375 38.0625 8.375 38.0625 6 40 C1.89446399 41.21645511 -0.2732225 41.26054288 -4.3125 39.8125 C-6.99930443 38.00046911 -7.96096588 37.01319894 -9 34 C-9.66 34 -10.32 34 -11 34 C-11.309375 35.11375 -11.309375 35.11375 -11.625 36.25 C-13.4894785 39.978957 -15.25377327 41.19626121 -19 43 C-22.76189268 43.5170729 -25.63257264 42.93972982 -28.7734375 40.78125 C-34.66560873 34.91782106 -35.06044288 26.69052626 -35.125 18.75 C-35.08375 17.8425 -35.0425 16.935 -35 16 C-35.66 15.67 -36.32 15.34 -37 15 C-36.5317879 10.22423661 -35.75668002 6.95523655 -33 3 C-31.0625 3.3125 -31.0625 3.3125 -29 4 C-28.07348885 6.77953345 -27.84053064 8.64307248 -27.75390625 11.52734375 C-27.72103516 12.40197266 -27.68816406 13.27660156 -27.65429688 14.17773438 C-27.59323293 16.01355028 -27.53592445 17.84949505 -27.48242188 19.68554688 C-27.43118164 20.99942383 -27.43118164 20.99942383 -27.37890625 22.33984375 C-27.3538501 23.13769287 -27.32879395 23.93554199 -27.30297852 24.75756836 C-26.96710479 27.24346699 -26.34111767 28.8853516 -25 31 C-22.68805807 32.09616096 -22.68805807 32.09616096 -20 32 C-17.7168162 30.8584081 -15.80987317 29.80987317 -14 28 C-13.56451504 21.1731329 -14.16460356 14.40425255 -14.9765625 7.62890625 C-15.00181641 4.79625924 -14.47476169 3.38100838 -13 1 C-10 2 -10 2 -8.875 4.02734375 C-7.53799783 8.56956986 -7.22259796 13.14896104 -6.7890625 17.84960938 C-6.30187992 23.23038843 -6.30187992 23.23038843 -4 28 C-1.21885944 30.33391203 -1.21885944 30.33391203 1.6875 29.625 C2.8321875 29.315625 2.8321875 29.315625 4 29 C3.74605469 28.32195312 3.49210938 27.64390625 3.23046875 26.9453125 C2.13069435 23.97139072 1.06260416 20.98739249 0 18 C-0.33128906 17.10539062 -0.66257812 16.21078125 -1.00390625 15.2890625 C-2.91863559 9.70801286 -3.33362038 6.48400788 -1 1 C-0.67 0.67 -0.34 0.34 0 0 Z " fill="#FAFBFC" transform="translate(551,311)"/>
<path d="M0 0 C0.16452243 7.6015652 0.16452243 7.6015652 -2.35400391 10.62597656 C-4.27452492 12.10034824 -6.24125067 13.37093135 -8.3125 14.625 C-9.87730604 15.64882786 -11.43971061 16.6763332 -13 17.70703125 C-13.82113281 18.24021973 -14.64226563 18.7734082 -15.48828125 19.32275391 C-19.72277664 22.15041558 -23.75926825 25.23316145 -27.8125 28.3125 C-29.49325471 29.58104042 -31.17424669 30.84926654 -32.85546875 32.1171875 C-34.11883057 33.07189941 -34.11883057 33.07189941 -35.40771484 34.04589844 C-38.05402152 36.0407222 -40.70744302 38.02569971 -43.36328125 40.0078125 C-55.03477195 48.70716123 -55.03477195 48.70716123 -66.41796875 57.77734375 C-68 59 -68 59 -69 59 C-69.89463509 55.40616671 -70.00571343 52.58408658 -69 49 C-65.73772363 45.54354051 -61.92371867 43.00799562 -57.99755859 40.37451172 C-54.51384143 37.9773805 -51.21215097 35.34508676 -47.875 32.75 C-44.92276235 30.49195431 -41.96179078 28.24549502 -39 26 C-38.23880859 25.42169434 -37.47761719 24.84338867 -36.69335938 24.24755859 C-4.66701782 0 -4.66701782 0 0 0 Z " fill="#FAFBFC" transform="translate(625,574)"/>
<path d="M0 0 C-0.09671608 6.91891964 -0.09671608 6.91891964 -2.35693359 9.62402344 C-4.23666891 11.16203641 -6.16611053 12.52849116 -8.1875 13.875 C-8.91364502 14.38836914 -9.63979004 14.90173828 -10.38793945 15.43066406 C-12.57815882 16.97478903 -14.78749698 18.48805515 -17 20 C-19.23753741 21.57189446 -21.46193872 23.16107764 -23.6875 24.75 C-24.23962158 25.14058594 -24.79174316 25.53117187 -25.3605957 25.93359375 C-33.53716718 31.74682969 -41.44479509 37.92676122 -49.41113281 44.02246094 C-53.34697192 47.0289016 -57.29425236 50.01981607 -61.25 53 C-61.92337402 53.51030762 -62.59674805 54.02061523 -63.29052734 54.54638672 C-67.88362693 58 -67.88362693 58 -69 58 C-69.802609 54.44028044 -69.91889773 51.55005846 -69 48 C-66.12071262 44.86477597 -62.64473576 42.73946614 -59.09326172 40.42285156 C-54.87938701 37.55855697 -50.9039096 34.36608113 -46.875 31.25 C-34.52893562 21.82145574 -22.15497535 12.46877228 -9 4.1875 C-8.32283936 3.76033691 -7.64567871 3.33317383 -6.94799805 2.89306641 C-2.25603 0 -2.25603 0 0 0 Z " fill="#FAFBFC" transform="translate(572,257)"/>
</svg>


