<?xml version="1.0" encoding="UTF-8"?>
<svg version="1.1" xmlns="http://www.w3.org/2000/svg" width="1080" height="1080">
<path d="M0 0 C4.18440543 1.67376217 7.15812433 4.69918467 10.375 7.75 C11.32729492 8.6464624 11.32729492 8.6464624 12.29882812 9.56103516 C18.45819507 15.40487268 24.48697927 21.38138505 30.5 27.375 C31.43118652 28.30151367 32.36237305 29.22802734 33.32177734 30.18261719 C38.42247752 35.29526711 43.32073282 40.50035138 48 46 C48.98465101 47.12980132 49.97029575 48.25873751 50.95703125 49.38671875 C57.094041 56.46047456 63.00385308 63.65058189 68.61474609 71.15087891 C69.59024478 72.45303383 70.57014906 73.75189415 71.55322266 75.04833984 C91.08015007 100.81327595 107.41804866 128.18734517 122 157 C122.40460449 157.7930957 122.80920898 158.58619141 123.22607422 159.40332031 C146.52270116 205.40049845 161.06436876 259.29293094 162 311 C162.02046387 312.02738281 162.04092773 313.05476563 162.06201172 314.11328125 C162.91480496 364.80161988 152.21014181 417.67311855 121 459 C120.58218262 459.56605957 120.16436523 460.13211914 119.73388672 460.71533203 C90.90783895 499.67325389 51.91665928 527.4058194 3.49414062 534.65625 C-35.78157958 540.06934848 -83.26116998 535.57782473 -116.8828125 512.95703125 C-121.74556508 511.4640809 -125.32902924 513.35678273 -130 515 C-131.94558546 515.5692317 -133.89650026 516.12047098 -135.8515625 516.65625 C-136.92736572 516.95136475 -138.00316895 517.24647949 -139.11157227 517.55053711 C-204.70426906 535.27619883 -204.70426906 535.27619883 -217.3125 535.0625 C-219.1378125 535.0315625 -219.1378125 535.0315625 -221 535 C-220.63177971 532.47026559 -220.29686205 531.27247535 -218.38623047 529.51879883 C-211.88216254 525.34988533 -205.11224723 521.97043793 -198.125 518.6875 C-196.92023428 518.11415504 -195.71581116 517.54008968 -194.51171875 516.96533203 C-189.24967593 514.45808286 -183.97411638 511.98111166 -178.6796875 509.54296875 C-150.95939645 496.74070906 -125.12845666 480.09498479 -103 459 C-102.1234375 458.18789063 -101.246875 457.37578125 -100.34375 456.5390625 C-84.97346719 441.88036686 -77.27984203 423.39597152 -69.5 404.0625 C-53.4667449 364.23693373 -53.4667449 364.23693373 -42.125 357.3125 C-39 356 -39 356 -36 356 C-35.90501221 356.79881592 -35.81002441 357.59763184 -35.7121582 358.4206543 C-33.35534056 378.21072478 -33.35534056 378.21072478 -29.5 397.75 C-29.31091064 398.55010498 -29.12182129 399.35020996 -28.92700195 400.17456055 C-26.3763346 411.20700238 -26.3763346 411.20700238 -19.8125 419.9375 C-17.96739726 421.06605117 -17.96739726 421.06605117 -16 422 C-15.36449219 422.31710937 -14.72898437 422.63421875 -14.07421875 422.9609375 C-2.53039963 427.70020787 10.74991715 425.40814505 22 421 C35.01267225 415.24556737 50.9998108 406.59856055 57.2734375 393.30078125 C68.11610809 365.11752755 54.77007272 327.41526163 43.1652832 300.9765625 C36.24422791 283.39263558 36.24422791 283.39263558 26 268 C25.87693985 268.6573262 25.7538797 269.3146524 25.62709045 269.99189758 C24.34807474 276.82148967 23.06613102 283.65052745 21.7824707 290.47924805 C21.30352566 293.02923658 20.82533224 295.5793664 20.34790039 298.12963867 C19.66228729 301.79122556 18.97398979 305.45229902 18.28515625 309.11328125 C18.07157974 310.2571077 17.85800323 311.40093414 17.63795471 312.579422 C17.43782272 313.64029526 17.23769073 314.70116852 17.03149414 315.79418945 C16.85606583 316.72906693 16.68063751 317.6639444 16.49989319 318.62715149 C16 321 16 321 15 324 C14.01 323.67 13.02 323.34 12 323 C9.96025493 318.50271188 9.68931093 314.22144753 9.75854492 309.359375 C9.76454051 308.62201111 9.7705361 307.88464722 9.77671337 307.12493896 C9.92672487 298.11827724 10.89518381 289.19826556 11.86328125 280.25 C12.05870285 278.38045728 12.25327823 276.51082593 12.44706726 274.64111328 C12.95622972 269.74751495 13.47536981 264.8550311 13.99719238 259.96276855 C14.82154202 252.21681812 15.62986393 244.46917048 16.43987656 236.72171021 C16.73646412 233.89233498 17.03549314 231.06322514 17.33474731 228.23413086 C18.257979 219.46231565 19.13889235 210.69053796 19.89208984 201.90234375 C19.99360304 200.72813873 19.99360304 200.72813873 20.09716702 199.5302124 C20.40996431 195.89393429 20.71213253 192.25728956 20.99617004 188.61865234 C21.15311592 186.7442749 21.15311592 186.7442749 21.31323242 184.83203125 C21.44129524 183.20358276 21.44129524 183.20358276 21.57194519 181.54223633 C22 179 22 179 24 177 C25.16953817 179.31108208 26.33556899 181.6238451 27.5 183.9375 C27.81453125 184.55818359 28.1290625 185.17886719 28.453125 185.81835938 C35.3787418 199.6030005 41.63738691 213.56959715 47.25 227.9375 C47.72773361 229.15415344 47.72773361 229.15415344 48.21511841 230.39538574 C98.47967847 358.56027422 98.47967847 358.56027422 81 409 C80.62617187 410.08667969 80.25234375 411.17335938 79.8671875 412.29296875 C71.0379663 435.36004004 52.71310968 450.75268306 30.93505859 461.14355469 C15.50324424 467.97358304 -1.73745925 471.20720873 -18.00390625 465.37890625 C-29.48429214 460.09523452 -37.6634922 451.42312382 -42.375 439.6875 C-46.98260942 425.35498043 -46.44429315 410.83011222 -44.984375 396.06640625 C-44.8901123 395.09610474 -44.79584961 394.12580322 -44.69873047 393.12609863 C-44.46768239 390.75054415 -44.23472584 388.37519342 -44 386 C-44.33733154 387.15298584 -44.67466309 388.30597168 -45.0222168 389.49389648 C-46.29878898 393.85705024 -47.57552041 398.22015739 -48.85229492 402.58325195 C-49.40018852 404.45563549 -49.94804147 406.32803091 -50.49584961 408.20043945 C-50.75954346 409.10173584 -51.0232373 410.00303223 -51.29492188 410.93164062 C-51.55788055 411.83059555 -51.82083923 412.72955048 -52.09176636 413.65574646 C-52.62290283 415.46996828 -53.154746 417.28398336 -53.68728638 419.09779358 C-54.92554506 423.31652653 -56.15638873 427.5368604 -57.36083984 431.76538086 C-59.59755461 439.58159638 -61.98038826 447.22925859 -65.25 454.6875 C-65.63349609 455.56905762 -66.01699219 456.45061523 -66.41210938 457.35888672 C-76.11926591 479.05746949 -91.58240682 497.29120341 -113 508 C-106.74018344 510.25103911 -100.5284813 511.86952283 -94 513.125 C-93.16210938 513.29386719 -92.32421875 513.46273437 -91.4609375 513.63671875 C-68.22010625 518.20573666 -41.11751218 518.30511156 -18 513 C-17.10249023 512.80132324 -16.20498047 512.60264648 -15.28027344 512.39794922 C18.11447503 504.84424044 47.48963717 490.00741421 72 466 C72.80824219 465.24203125 73.61648438 464.4840625 74.44921875 463.703125 C105.05271856 434.43485642 119.28504166 390.61820858 120.25 349.125 C119.00146291 294.1113344 99.26985895 242.67003616 75 194 C74.49243164 192.98083496 73.98486328 191.96166992 73.46191406 190.91162109 C65.05676071 174.14638935 55.74396005 158.01076746 46 142 C45.23115479 140.7318042 45.23115479 140.7318042 44.44677734 139.43798828 C29.25262677 112.97685079 29.25262677 112.97685079 7 93 C6.95182286 93.66272919 6.90364573 94.32545837 6.85400867 95.00827026 C6.29884912 101.88836215 5.27270716 108.55368971 3.93041992 115.3203125 C3.72212051 116.3935527 3.51382111 117.46679291 3.29920959 118.57255554 C2.61491828 122.09109198 1.92280871 125.60803923 1.23046875 129.125 C0.74779418 131.59716331 0.26556823 134.06941425 -0.2162323 136.54174805 C-1.22587062 141.71680155 -2.23890278 146.89117766 -3.25512695 152.06494141 C-4.54764787 158.64544889 -5.8338724 165.22716728 -7.11795521 171.80932617 C-8.3540006 178.14410484 -9.59284384 184.47833534 -10.83203125 190.8125 C-11.0634614 191.99644348 -11.29489155 193.18038696 -11.53333473 194.40020752 C-14.25075722 208.28992009 -17.03461265 222.16096007 -20 236 C-21.32 236 -22.64 236 -24 236 C-30.31092678 222.53668954 -26.52577648 205.48500072 -24.72094727 191.3293457 C-24.47563343 189.36198692 -24.23097158 187.39454674 -23.98690796 185.42703247 C-23.3260625 180.1144883 -22.65620583 174.80311556 -21.98470426 169.49190927 C-21.28179102 163.91944598 -20.58738138 158.34592326 -19.89207458 152.77250671 C-18.57455835 142.22184794 -17.24965641 131.67213079 -15.92197698 121.12274665 C-14.26666809 107.96737078 -12.62050029 94.81085379 -10.97460938 81.65429688 C-10.39768898 77.0429752 -9.82070595 72.43166137 -9.24363708 67.82035828 C-9.10380793 66.70298426 -8.96397878 65.58561025 -8.81991237 64.43437642 C-7.85699222 56.74182306 -6.89151569 49.04959323 -5.92494202 41.35749817 C-5.54097829 38.3000489 -5.15705595 35.24259444 -4.77314377 32.1851387 C-4.41954116 29.37076851 -4.06525833 26.55648452 -3.71095276 23.74220276 C-3.49705068 22.03889903 -3.28318153 20.33559117 -3.0693512 18.63227844 C-2.9278099 17.51075905 -2.9278099 17.51075905 -2.78340918 16.36658269 C-2.69433324 15.65590113 -2.6052573 14.94521957 -2.51348209 14.2130022 C-2.42769465 13.52936025 -2.3419072 12.8457183 -2.25352013 12.14135993 C-2.07052753 10.59571135 -1.90357911 9.04813398 -1.74671924 7.49961507 C-1.66387152 6.68232636 -1.58102381 5.86503764 -1.49566555 5.0229826 C-1.42410384 4.27716448 -1.35254212 3.53134637 -1.27881187 2.76292771 C-1 1 -1 1 0 0 Z M-43 379 C-42 382 -42 382 -42 382 Z " fill="#1B1464" transform="translate(583,294)"/>
<path d="M0 0 C49.70782975 45.38157104 79.52534038 124.39961879 104.84143066 185.2220459 C106.0615441 188.14756707 107.2874175 191.07062184 108.51464844 193.99316406 C110.68086109 199.15222889 112.83873468 204.31470701 114.99053955 209.47979736 C115.81689513 211.46140884 116.64523876 213.44219269 117.47576904 215.42205811 C131.10829585 247.9590246 131.10829585 247.9590246 129 255 C127.02 255 125.04 255 123 255 C122.64397705 254.33282959 122.2879541 253.66565918 121.92114258 252.97827148 C113.48869165 237.19625113 104.88668017 221.53195062 96 206 C95.4004248 204.94780273 94.80084961 203.89560547 94.18310547 202.81152344 C86.25719926 188.90867051 78.1703453 175.1348217 69.63574219 161.59619141 C67.94049717 158.90555924 66.25548881 156.20866618 64.5703125 153.51171875 C48.97695318 128.66558804 31.66074075 105.09208929 13.57373047 82.01464844 C11.30218984 79.10668175 9.05641802 76.17929695 6.8125 73.25 C-2.59664963 61.005846 -12.22798157 48.95609427 -22 37 C-22.47872559 36.41395996 -22.95745117 35.82791992 -23.45068359 35.22412109 C-25.96452338 32.14728129 -28.48082956 29.07247661 -31 26 C-34.66700337 27.22233446 -35.49566262 28.55016909 -37.875 31.5625 C-38.67164063 32.5628125 -39.46828125 33.563125 -40.2890625 34.59375 C-40.72379883 35.14289063 -41.15853516 35.69203125 -41.60644531 36.2578125 C-43.05929438 38.07412836 -44.53759246 39.86684522 -46.0234375 41.65625 C-54.14198286 51.45977647 -61.67109456 61.59650964 -69 72 C-69.63873047 72.90202148 -70.27746094 73.80404297 -70.93554688 74.73339844 C-79.5027721 86.84611135 -87.7585903 99.08895059 -95.56884766 111.70263672 C-97.01346247 114.02161068 -98.4777092 116.32691683 -99.94921875 118.62890625 C-107.5881319 130.58715244 -114.85419649 142.74170255 -122 155 C-122.5971582 156.02013184 -123.19431641 157.04026367 -123.80957031 158.09130859 C-132.52258149 172.98693302 -140.88527767 188.03641834 -148.99145508 203.27001953 C-150.51334094 206.11161249 -152.0645188 208.93607619 -153.6237793 211.75732422 C-161.59444857 226.20208439 -169.08691611 240.85627124 -176.4375 255.625 C-177.03738873 256.82784278 -177.63738578 258.03063154 -178.23748779 259.23336792 C-186.21831184 275.23419869 -194.07942665 291.26475583 -201.4375 307.56298828 C-203.22706681 311.49947602 -205.04928782 315.42003006 -206.875 319.33984375 C-217.66690212 342.55030679 -227.86632434 365.99702019 -237.94085693 389.52636719 C-251.39299234 420.94388252 -251.39299234 420.94388252 -257.4375 433.8125 C-257.81463135 434.62452881 -258.1917627 435.43655762 -258.58032227 436.27319336 C-261.25007042 441.86022772 -264.45083959 446.93009317 -268 452 C-269.32 451.67 -270.64 451.34 -272 451 C-271.49175668 443.21344084 -270.57067269 435.6920978 -268.9375 428.0625 C-268.71908447 427.03729248 -268.50066895 426.01208496 -268.27563477 424.95581055 C-259.96284237 387.0402566 -246.95693193 350.15939278 -233 314 C-232.75719299 313.36976929 -232.51438599 312.73953857 -232.26422119 312.09020996 C-214.41315852 265.82344989 -193.96185744 220.56550973 -172.03570557 176.10070801 C-171.01654791 174.03356391 -169.99913262 171.9655694 -168.98193359 169.89746094 C-161.49871855 154.69773508 -153.82125043 139.63340872 -145.57177734 124.83154297 C-143.87328992 121.77173291 -142.19561712 118.7010406 -140.51953125 115.62890625 C-132.11059242 100.27228341 -123.26754916 85.24106705 -114.06689453 70.34863281 C-112.08707827 67.1410779 -110.11910467 63.92650794 -108.15234375 60.7109375 C-99.59169352 46.78631431 -90.51738306 33.28780795 -81 20 C-80.43087891 19.19965332 -79.86175781 18.39930664 -79.27539062 17.57470703 C-69.06913524 3.28046226 -59.12629391 -7.82181918 -41 -11.4375 C-25.63933465 -13.40058898 -12.21135745 -9.41025147 0 0 Z " fill="#C69C6D" transform="translate(603,202)"/>
<path d="M0 0 C2.57873109 2.43819693 4.55967889 4.61671515 6.15966797 7.78588867 C6.53512253 8.52120316 6.91057709 9.25651764 7.29740906 10.01411438 C7.69168594 10.80738632 8.08596283 11.60065826 8.4921875 12.41796875 C8.91486404 13.25494797 9.33754059 14.09192719 9.77302551 14.95426941 C11.15076537 17.69360971 12.51427553 20.43967134 13.875 23.1875 C14.34298004 24.12805237 14.81096008 25.06860474 15.29312134 26.03765869 C36.90686146 69.55689834 60.97270578 119.82253611 61.203125 169.24609375 C61.20882507 170.21547379 61.21452515 171.18485382 61.22039795 172.18360901 C61.22980386 174.23006109 61.23636429 176.27652801 61.24023438 178.32299805 C61.24987381 181.39725495 61.28091257 184.47082328 61.3125 187.54492188 C61.39414893 202.5652132 60.30451879 216.9156108 55.25 231.1875 C54.99250977 231.92959717 54.73501953 232.67169434 54.46972656 233.4362793 C45.45113218 258.65423963 27.94082037 277.23499695 6 292 C5.11699219 292.60585938 4.23398437 293.21171875 3.32421875 293.8359375 C-6.55496372 300.20647415 -17.18014004 304.08549734 -29 303 C-29.90625 300.8984375 -29.90625 300.8984375 -30 298 C-28.18168959 295.50720802 -25.83825831 293.62012124 -23.5 291.625 C-22.10863268 290.38118941 -20.71937095 289.13502014 -19.33203125 287.88671875 C-18.61354004 287.24653809 -17.89504883 286.60635742 -17.15478516 285.94677734 C8.0772571 263.15045908 24.96359766 236.74468951 31 203 C31.19335938 201.95585938 31.38671875 200.91171875 31.5859375 199.8359375 C33.46867843 182.39394131 32.76827739 164.14136043 29 147 C28.81195801 146.1445459 28.62391602 145.2890918 28.43017578 144.40771484 C23.8135325 124.2700417 15.68014525 105.2063659 6 87 C5.67 87 5.34 87 5 87 C4.87916046 87.77594513 4.75832092 88.55189026 4.63381958 89.35134888 C3.49173849 96.67893741 2.34468886 104.00572291 1.19211006 111.33166695 C0.59979303 115.0976444 0.00937292 118.86389852 -0.57666016 122.63085938 C-1.14273246 126.26904889 -1.71385527 129.90641332 -2.28842545 133.54327011 C-2.50629259 134.92798784 -2.72236663 136.31298896 -2.93658066 137.69827652 C-3.23790388 139.64481654 -3.54631072 141.59025596 -3.85498047 143.53564453 C-4.02818817 144.64150909 -4.20139587 145.74737366 -4.37985229 146.88674927 C-5.0085326 150.04283515 -5.91725313 152.97255819 -7 156 C-8.875 155.375 -8.875 155.375 -11 154 C-16.82031617 140.82770552 -14.06669161 123.85362648 -12.9375 109.875 C-12.87642059 109.10207611 -12.81534119 108.32915222 -12.75241089 107.5328064 C-11.44688455 91.25366734 -9.6445202 75.02652505 -7.789814 58.80240631 C-7.56662163 56.84858075 -7.34480602 54.89459808 -7.12301636 52.94061279 C-5.10316223 35.23609051 -2.72782595 17.60941016 0 0 Z " fill="#1B1464" transform="translate(484,389)"/>
<path d="M0 0 C4.39277553 3.73784443 4.44521206 8.50262648 5 14 C5.28505077 19.8925622 5.19045878 25.79065233 5.125 31.6875 C5.11494496 33.27538495 5.1058236 34.8632761 5.09765625 36.45117188 C5.07585443 40.30093725 5.04146559 44.15039827 5 48 C4.45730469 48.18433594 3.91460937 48.36867188 3.35546875 48.55859375 C0.33876301 49.78158256 -2.23836461 50.87317843 -4.1003418 53.62792969 C-6.75597859 60.89711964 -7.35494612 69.09081092 -8.44619751 76.71981812 C-12.21240698 102.73436955 -17.35307634 129.41748223 -35 150 C-35.71285156 150.84691406 -36.42570312 151.69382812 -37.16015625 152.56640625 C-60.1454904 177.70061972 -99.62922546 180.42526964 -131.4765625 181.84765625 C-137.98467282 182.09538432 -144.48837463 182.08760034 -151 182 C-150 179 -150 179 -148.38720703 178.11547852 C-147.33315674 177.75087524 -147.33315674 177.75087524 -146.2578125 177.37890625 C-145.05016235 176.945177 -145.05016235 176.945177 -143.81811523 176.50268555 C-142.92938721 176.19242432 -142.04065918 175.88216309 -141.125 175.5625 C-110.08011198 164.19763662 -79.78268167 150.41730528 -56 127 C-54.73929688 125.77603516 -54.73929688 125.77603516 -53.453125 124.52734375 C-42.98596455 113.7435017 -35.32144251 100.52287426 -29.0625 86.9375 C-28.5509436 85.84417358 -28.5509436 85.84417358 -28.02905273 84.72875977 C-21.1438918 69.04561132 -18.13433099 51.48706854 -14.375 34.86083984 C-7.90133146 6.32106517 -7.90133146 6.32106517 0 0 Z " fill="#1B1464" transform="translate(469,561)"/>
<path d="M0 0 C0.99 0 1.98 0 3 0 C4.70046438 4.32085212 6.35586185 8.65743173 8 13 C8.41507813 14.05058594 8.83015625 15.10117187 9.2578125 16.18359375 C11.65772846 22.63651464 13.09600208 28.25580508 11 35 C8.98612727 38.05132231 7.71994274 39.64558756 4.06640625 40.3984375 C-0.3907918 40.61750584 -3.4359366 39.83028564 -7 37 C-7.66 36.01 -8.32 35.02 -9 34 C-9.61488281 34.74056641 -9.61488281 34.74056641 -10.2421875 35.49609375 C-10.78101563 36.13675781 -11.31984375 36.77742188 -11.875 37.4375 C-12.40867187 38.07558594 -12.94234375 38.71367187 -13.4921875 39.37109375 C-15.94561237 42.02155534 -17.07808351 42.00640029 -20.8125 42.3125 C-23.85160002 42.25193822 -25.03790231 41.97978543 -27.8125 40.5 C-33.56377715 33.92711183 -33.42136311 26.40352868 -33.69140625 18.09765625 C-33.79324219 17.07542969 -33.89507813 16.05320312 -34 15 C-34.66 14.67 -35.32 14.34 -36 14 C-35.56179109 9.44262737 -35.14958831 6.42346555 -32 3 C-30.0625 3.3125 -30.0625 3.3125 -28 4 C-27.07853182 6.76440454 -26.82786402 8.65758692 -26.71875 11.52734375 C-26.68136719 12.40197266 -26.64398437 13.27660156 -26.60546875 14.17773438 C-26.57066406 15.08845703 -26.53585937 15.99917969 -26.5 16.9375 C-26.43088111 18.73843102 -26.35809756 20.53922597 -26.28125 22.33984375 C-26.25095703 23.13769287 -26.22066406 23.93554199 -26.18945312 24.75756836 C-26.00529358 26.93734333 -25.59337125 28.89827662 -25 31 C-19.5285074 31.43790112 -19.5285074 31.43790112 -14.5 29.6875 C-11.33474042 24.01640993 -12.74223025 17.12785423 -14 11 C-14.12782974 7.29293762 -14.17554079 4.52662236 -13 1 C-11.125 1.1875 -11.125 1.1875 -9 2 C-6.518485 6.73743772 -6.33531759 11.88700774 -5.87695312 17.1171875 C-5.38170624 21.84657218 -4.43672261 25.56327739 -1 29 C0.66617115 29.04063832 2.33388095 29.042721 4 29 C3.66700341 24.11605003 2.41835752 20.62239016 0.3125 16.1875 C-2.33607567 10.18658427 -2.12691271 6.12334106 0 0 Z " fill="#C69C6D" transform="translate(550,348)"/>
<path d="M0 0 C-0.28292678 7.23374951 -0.28292678 7.23374951 -3.44921875 10.6171875 C-5.05216797 11.73480469 -5.05216797 11.73480469 -6.6875 12.875 C-7.26910889 13.29152832 -7.85071777 13.70805664 -8.44995117 14.13720703 C-10.28580927 15.44632207 -12.14189258 16.7227348 -14 18 C-15.14014838 18.80951179 -16.27822079 19.62195645 -17.4140625 20.4375 C-19.1273233 21.66743831 -20.84156366 22.89560737 -22.56201172 24.11547852 C-29.81909105 29.26146173 -36.91186583 34.624818 -44 40 C-44.74846191 40.56750977 -45.49692383 41.13501953 -46.26806641 41.71972656 C-48.55561151 43.45650379 -50.84086164 45.19624532 -53.125 46.9375 C-53.82343018 47.46899658 -54.52186035 48.00049316 -55.24145508 48.5480957 C-58.3495381 50.92459943 -61.40212447 53.32550805 -64.3671875 55.87890625 C-67 58 -67 58 -69 58 C-69.70870427 54.33836129 -69.9858939 52.51880217 -69 49 C-66.00918421 45.59379312 -62.50556131 42.98843097 -58.85205078 40.34326172 C-56.98182003 38.98681437 -55.14338916 37.5953356 -53.30859375 36.19140625 C-49.96479635 33.64242843 -46.59303795 31.133603 -43.2109375 28.63574219 C-40.89582579 26.92292765 -38.58828274 25.20024015 -36.28125 23.4765625 C-4.76376589 0 -4.76376589 0 0 0 Z " fill="#C69C6D" transform="translate(625,611)"/>
<path d="M0 0 C1.24846856 3.74540568 1.28361686 5.24576575 0 9 C-2.55589801 11.39214967 -5.47328762 13.1542876 -8.4375 15 C-10.18944791 16.14216574 -11.93807119 17.28944485 -13.68359375 18.44140625 C-15.01946533 19.32143311 -15.01946533 19.32143311 -16.38232422 20.21923828 C-20.39583471 22.94956336 -24.19908479 25.92124342 -28 28.9375 C-34.22294879 33.85964909 -40.52686348 38.63715429 -46.9375 43.3125 C-53.18301197 47.86912935 -59.26032452 52.5279669 -65.1640625 57.5234375 C-67 59 -67 59 -68 59 C-68.98922125 55.38070637 -69.059236 52.61702248 -68 49 C-64.51914092 45.26765028 -60.47313954 42.51642061 -56.28955078 39.61914062 C-52.92293818 37.23831585 -49.67841885 34.70670184 -46.41723633 32.18432617 C-31.4486113 20.62731454 -16.44106976 9.38450442 0 0 Z " fill="#C69C6D" transform="translate(571,293)"/>
</svg>


