<?xml version="1.0" encoding="UTF-8"?>
<svg version="1.1" xmlns="http://www.w3.org/2000/svg" width="1080" height="1081">
<path d="M0 0 C11.29387085 4.80253387 20.75577605 17.65594405 29.375 26.25 C29.89646606 26.76878723 30.41793213 27.28757446 30.9552002 27.82208252 C36.85678422 33.7007131 42.60742496 39.64452789 48 46 C48.94896878 47.08339269 49.89943776 48.16547357 50.8515625 49.24609375 C58.65230766 58.1890561 65.9211702 67.47801561 73 77 C73.5377002 77.72203613 74.07540039 78.44407227 74.62939453 79.18798828 C92.84851989 103.75943869 108.19810011 129.72865831 122 157 C122.40460449 157.7930957 122.80920898 158.58619141 123.22607422 159.40332031 C146.52270116 205.40049845 161.06436876 259.29293094 162 311 C162.02046387 312.02738281 162.04092773 313.05476563 162.06201172 314.11328125 C162.75074515 355.05023039 156.25698446 392.96940258 138 430 C137.61730957 430.78310547 137.23461914 431.56621094 136.84033203 432.37304688 C128.82149281 448.62404389 118.96746395 462.45311645 107 476 C106.31719971 476.77754639 106.31719971 476.77754639 105.62060547 477.57080078 C75.19237682 512.06333279 36.12723332 532.93365162 -10 536 C-45.65158331 537.45201422 -86.14657208 533.85077098 -116.4921875 513.15234375 C-121.8103059 510.70866006 -128.04209223 513.91699319 -133.3125 515.6796875 C-143.99096966 519.14485931 -154.82948588 521.78744756 -165.75195312 524.35986328 C-168.99788412 525.12450157 -172.24126932 525.8992561 -175.484375 526.67578125 C-181.64963324 528.14634925 -187.82158149 529.58577232 -194 531 C-195.390979 531.31874084 -195.390979 531.31874084 -196.81005859 531.6439209 C-199.39185701 532.22964337 -201.97624783 532.80149307 -204.5625 533.3671875 C-205.3054834 533.53542023 -206.0484668 533.70365295 -206.81396484 533.87698364 C-211.63447018 534.90695591 -216.07001649 535.14487719 -221 535 C-220.62984522 532.56010652 -220.31456304 531.29740506 -218.49609375 529.578125 C-208.32554256 523.01647907 -197.33713087 518.03575219 -186.32519531 513.07519531 C-155.84446713 499.32063363 -127.18502624 482.28795553 -103 459 C-102.21367187 458.27683594 -101.42734375 457.55367187 -100.6171875 456.80859375 C-84.56065277 441.61922378 -76.72108369 422.00835197 -68.64208984 401.93041992 C-53.46559844 364.2150579 -53.46559844 364.2150579 -40.76171875 356.7421875 C-39 356 -39 356 -36 356 C-35.90501221 356.79881592 -35.81002441 357.59763184 -35.7121582 358.4206543 C-33.35534056 378.21072478 -33.35534056 378.21072478 -29.5 397.75 C-29.31091064 398.55010498 -29.12182129 399.35020996 -28.92700195 400.17456055 C-26.37576629 411.17757222 -26.37576629 411.17757222 -19.875 419.9375 C-10.22800681 425.68898431 0.58420274 426.32335776 11.48046875 424.37890625 C27.44128986 420.32107037 46.88046017 410.13783409 56 396 C67.07514387 372.52477173 57.98311581 340.5370066 49.82373047 317.20263672 C40.1796992 291.4063569 40.1796992 291.4063569 26 268 C25.87693985 268.6573262 25.7538797 269.3146524 25.62709045 269.99189758 C24.34807474 276.82148967 23.06613102 283.65052745 21.7824707 290.47924805 C21.30352566 293.02923658 20.82533224 295.5793664 20.34790039 298.12963867 C19.66228729 301.79122556 18.97398979 305.45229902 18.28515625 309.11328125 C18.07157974 310.2571077 17.85800323 311.40093414 17.63795471 312.579422 C17.43782272 313.64029526 17.23769073 314.70116852 17.03149414 315.79418945 C16.85606583 316.72906693 16.68063751 317.6639444 16.49989319 318.62715149 C16 321 16 321 15 324 C14.01 323.67 13.02 323.34 12 323 C9.96025493 318.50271188 9.68931093 314.22144753 9.75854492 309.359375 C9.76454051 308.62201111 9.7705361 307.88464722 9.77671337 307.12493896 C9.92672487 298.11827724 10.89518381 289.19826556 11.86328125 280.25 C12.05870285 278.38045728 12.25327823 276.51082593 12.44706726 274.64111328 C12.95622972 269.74751495 13.47536981 264.8550311 13.99719238 259.96276855 C14.82154202 252.21681812 15.62986393 244.46917048 16.43987656 236.72171021 C16.73646412 233.89233498 17.03549314 231.06322514 17.33474731 228.23413086 C18.257979 219.46231565 19.13889235 210.69053796 19.89208984 201.90234375 C19.99360304 200.72813873 19.99360304 200.72813873 20.09716702 199.5302124 C20.40996431 195.89393429 20.71213253 192.25728956 20.99617004 188.61865234 C21.15311592 186.7442749 21.15311592 186.7442749 21.31323242 184.83203125 C21.44129524 183.20358276 21.44129524 183.20358276 21.57194519 181.54223633 C22 179 22 179 24 177 C25.16953817 179.31108208 26.33556899 181.6238451 27.5 183.9375 C27.81453125 184.55818359 28.1290625 185.17886719 28.453125 185.81835938 C35.43979926 199.72452834 41.72238183 213.81446127 47.375 228.3125 C47.8580661 229.5446524 47.8580661 229.5446524 48.35089111 230.80169678 C99.69560129 361.82348414 99.69560129 361.82348414 78.25 416.375 C75.27226294 422.90656898 71.52605461 428.44999007 67 434 C66.38382813 434.77988281 65.76765625 435.55976562 65.1328125 436.36328125 C52.04984893 452.07912338 28.49254178 465.89893883 8 468 C-6.02611825 468.95766564 -18.07135312 467.31828617 -29.4921875 458.328125 C-41.66849318 447.0242649 -45.19530387 433.05954756 -46.1875 416.95703125 C-46.33263818 409.94504297 -45.67342125 403.03452038 -44.984375 396.06640625 C-44.8901123 395.09610474 -44.79584961 394.12580322 -44.69873047 393.12609863 C-44.46768239 390.75054415 -44.23472584 388.37519342 -44 386 C-44.33733154 387.15298584 -44.67466309 388.30597168 -45.0222168 389.49389648 C-46.29878898 393.85705024 -47.57552041 398.22015739 -48.85229492 402.58325195 C-49.40018852 404.45563549 -49.94804147 406.32803091 -50.49584961 408.20043945 C-50.75954346 409.10173584 -51.0232373 410.00303223 -51.29492188 410.93164062 C-51.55788055 411.83059555 -51.82083923 412.72955048 -52.09176636 413.65574646 C-52.62290283 415.46996828 -53.154746 417.28398336 -53.68728638 419.09779358 C-54.92554506 423.31652653 -56.15638873 427.5368604 -57.36083984 431.76538086 C-59.59755461 439.58159638 -61.98038826 447.22925859 -65.25 454.6875 C-65.63349609 455.56905762 -66.01699219 456.45061523 -66.41210938 457.35888672 C-76.11926591 479.05746949 -91.58240682 497.29120341 -113 508 C-106.55986336 510.34455227 -100.17529026 511.90526968 -93.4375 513.125 C-92.54353516 513.29386719 -91.64957031 513.46273437 -90.72851562 513.63671875 C-82.81329059 515.10743357 -75.06276836 516.14960189 -67.00390625 516.23828125 C-65.89045082 516.25297203 -65.89045082 516.25297203 -64.75450134 516.26795959 C-47.16497349 516.45193874 -30.22890492 515.97801149 -13 512 C-12.09443359 511.79101074 -11.18886719 511.58202148 -10.25585938 511.36669922 C20.22168683 504.03297099 48.09062272 489.17607481 70.57617188 467.37255859 C71.83024607 466.16364139 73.10867193 464.98009428 74.390625 463.80078125 C103.38383444 436.42409967 118.48283729 394.16176254 120 355 C120.04125 354.10023438 120.0825 353.20046875 120.125 352.2734375 C121.4041319 296.7910914 99.2939795 242.71840677 75 194 C74.49243164 192.98083496 73.98486328 191.96166992 73.46191406 190.91162109 C65.05676071 174.14638935 55.74396005 158.01076746 46 142 C45.23115479 140.7318042 45.23115479 140.7318042 44.44677734 139.43798828 C29.25262677 112.97685079 29.25262677 112.97685079 7 93 C6.95307196 93.65648372 6.90614391 94.31296743 6.85779381 94.9893446 C6.29177741 102.05954888 5.20259181 108.90571933 3.82275391 115.85864258 C3.493265 117.55370186 3.493265 117.55370186 3.15711975 119.28300476 C2.43556016 122.98790277 1.70617189 126.69121085 0.9765625 130.39453125 C0.46906715 132.9907741 -0.03801647 135.58709417 -0.54458618 138.18351746 C-1.60517185 143.61500888 -2.66980228 149.04569402 -3.73730469 154.47583008 C-5.23389624 162.08871296 -6.7226504 169.70311326 -8.21007037 177.31779253 C-9.37531504 183.2812069 -10.54315966 189.24411254 -11.7109375 195.20703125 C-11.95610485 196.45966074 -12.2012722 197.71229023 -12.45386887 199.00287819 C-17.43887306 224.45216099 -17.43887306 224.45216099 -20 236 C-21.32 236 -22.64 236 -24 236 C-30.31092678 222.53668954 -26.52577648 205.48500072 -24.72094727 191.3293457 C-24.47563343 189.36198692 -24.23097158 187.39454674 -23.98690796 185.42703247 C-23.3260625 180.1144883 -22.65620583 174.80311556 -21.98470426 169.49190927 C-21.28179102 163.91944598 -20.58738138 158.34592326 -19.89207458 152.77250671 C-18.57455835 142.22184794 -17.24965641 131.67213079 -15.92197698 121.12274665 C-14.26666809 107.96737078 -12.62050029 94.81085379 -10.97460938 81.65429688 C-10.39768898 77.0429752 -9.82070595 72.43166137 -9.24363708 67.82035828 C-9.10380793 66.70298426 -8.96397878 65.58561025 -8.81991237 64.43437642 C-7.85699222 56.74182306 -6.89151569 49.04959323 -5.92494202 41.35749817 C-5.54097829 38.3000489 -5.15705595 35.24259444 -4.77314377 32.1851387 C-4.41954116 29.37076851 -4.06525833 26.55648452 -3.71095276 23.74220276 C-3.49705068 22.03889903 -3.28318153 20.33559117 -3.0693512 18.63227844 C-2.9278099 17.51075905 -2.9278099 17.51075905 -2.78340918 16.36658269 C-2.69433324 15.65590113 -2.6052573 14.94521957 -2.51348209 14.2130022 C-2.42769465 13.52936025 -2.3419072 12.8457183 -2.25352013 12.14135993 C-2.07052753 10.59571135 -1.90357911 9.04813398 -1.74671924 7.49961507 C-1.66387152 6.68232636 -1.58102381 5.86503764 -1.49566555 5.0229826 C-1.42410384 4.27716448 -1.35254212 3.53134637 -1.27881187 2.76292771 C-1 1 -1 1 0 0 Z M-43 379 C-42 382 -42 382 -42 382 Z " fill="#000000" transform="translate(583,258)"/>
<path d="M0 0 C19.6437711 18.04751109 34.66647032 44.1358925 47.88085938 67.06494141 C49.11028457 69.19068837 50.36000203 71.30388865 51.609375 73.41796875 C78.18588652 118.7597606 98.40175119 167.35504076 118.190979 215.93460083 C118.92767683 217.74290833 119.66587125 219.55060697 120.40570068 221.3576355 C131.83683593 249.31956202 131.83683593 249.31956202 130 256 C128.02 256 126.04 256 124 256 C123.6189209 255.27748047 123.2378418 254.55496094 122.84521484 253.81054688 C114.98981802 238.9493659 106.93771145 224.26331534 98.390625 209.78515625 C95.59870378 205.04891817 92.89157832 200.27085832 90.21313477 195.46972656 C79.4712907 176.22853255 67.83950316 157.58428347 55.625 139.25 C55.21651825 138.63623505 54.8080365 138.02247009 54.38717651 137.3901062 C46.03907095 124.87036979 37.35814489 112.62003332 28.1875 100.6875 C27.5066333 99.79796631 26.8257666 98.90843262 26.12426758 97.99194336 C24.74255965 96.18700377 23.36000812 94.38270961 21.9765625 92.57910156 C20.13656368 90.17819401 18.30146029 87.77366106 16.46875 85.3671875 C3.2907422 68.06996393 -10.30536686 51.14221121 -24.09765625 34.33203125 C-26.0810978 31.90058442 -28.04354529 29.45319376 -30 27 C-33.66700337 28.22233446 -34.49566262 29.55016909 -36.875 32.5625 C-37.67164063 33.5628125 -38.46828125 34.563125 -39.2890625 35.59375 C-39.72379883 36.14289063 -40.15853516 36.69203125 -40.60644531 37.2578125 C-42.05929438 39.07412836 -43.53759246 40.86684522 -45.0234375 42.65625 C-53.14209396 52.45991063 -60.66964183 62.59738923 -68 73 C-68.6280957 73.88606934 -69.25619141 74.77213867 -69.90332031 75.68505859 C-79.70521819 89.52715661 -89.02779402 103.60784918 -98 118 C-98.5475293 118.87366211 -99.09505859 119.74732422 -99.65917969 120.64746094 C-116.53864477 147.58448266 -132.32339616 175.13915295 -147.43115234 203.10498047 C-149.01335308 206.02464065 -150.60963766 208.93628535 -152.20703125 211.84765625 C-169.4321047 243.42778017 -185.57283674 275.72680126 -200.40527344 308.49853516 C-202.20991232 312.46089443 -204.04464748 316.4085877 -205.8828125 320.35546875 C-216.67135635 343.56105181 -226.86862101 367.00238414 -236.94085693 390.52636719 C-250.38284708 421.92018825 -250.38284708 421.92018825 -256.4375 434.875 C-256.81463135 435.69540771 -257.1917627 436.51581543 -257.58032227 437.36108398 C-260.03656501 442.52305287 -262.76086734 448.07281491 -267 452 C-268.32 452 -269.64 452 -271 452 C-270.49175668 444.21344084 -269.57067269 436.6920978 -267.9375 429.0625 C-267.71908447 428.03729248 -267.50066895 427.01208496 -267.27563477 425.95581055 C-249.07269361 342.93020803 -212.85886225 262.28768426 -165.25 165.25 C-164.77803192 164.30070618 -164.30606384 163.35141235 -163.8197937 162.37335205 C-157.25825386 149.19363709 -150.4026048 136.2039835 -143.28106689 123.31835938 C-142.18829541 121.34076005 -141.09999524 119.36085246 -140.01513672 117.37890625 C-131.46076555 101.78228746 -122.41605951 86.51946705 -113.08300781 71.38085938 C-111.73254792 69.1889737 -110.38533788 66.99508109 -109.04199219 64.79882812 C-99.87998668 49.82020128 -90.22436762 35.27487288 -80 21 C-79.43087891 20.19965332 -78.86175781 19.39930664 -78.27539062 18.57470703 C-67.55414296 3.55919619 -57.50140427 -6.97706759 -38.65234375 -10.55859375 C-24.61238119 -12.25540206 -11.26797724 -8.51837514 0 0 Z " fill="#000000" transform="translate(602,165)"/>
<path d="M0 0 C2.60804525 2.46159689 4.58111989 4.6602859 6.19140625 7.86523438 C6.57323563 8.61648087 6.955065 9.36772736 7.34846497 10.14173889 C7.74909653 10.95090256 8.14972809 11.76006622 8.5625 12.59375 C8.99064499 13.44444565 9.41878998 14.2951413 9.85990906 15.1716156 C11.24979435 17.94294892 12.62606564 20.72072757 14 23.5 C14.4712027 24.44827667 14.9424054 25.39655334 15.42788696 26.37356567 C36.95497917 69.74325426 60.97306194 119.89892965 61.203125 169.24609375 C61.20882507 170.21547379 61.21452515 171.18485382 61.22039795 172.18360901 C61.22980386 174.23006109 61.23636429 176.27652801 61.24023438 178.32299805 C61.24987381 181.39725495 61.28091257 184.47082328 61.3125 187.54492188 C61.39345056 202.4646985 60.32443626 216.79964304 55.375 231 C55.12339111 231.7329126 54.87178223 232.4658252 54.61254883 233.22094727 C49.96158877 246.17630249 43.41335239 257.90671044 34 268 C33.55285645 268.48275391 33.10571289 268.96550781 32.64501953 269.46289062 C19.20943391 283.83477006 -0.86778652 301.41824888 -21.2578125 303.30078125 C-23.86234351 303.31077306 -26.40708268 303.23383022 -29 303 C-29.94140625 300.93359375 -29.94140625 300.93359375 -30 298 C-27.99531835 295.32024734 -25.46185257 293.24300954 -22.9375 291.0625 C-21.45276672 289.7244964 -19.96972625 288.38461224 -18.48828125 287.04296875 C-17.3583374 286.03049072 -17.3583374 286.03049072 -16.20556641 284.99755859 C8.61910192 262.51411425 25.05357182 236.24171607 31 203 C31.19335938 201.95585938 31.38671875 200.91171875 31.5859375 199.8359375 C35.92103479 159.67494187 24.62222012 122.20053803 6 87 C5.67 87 5.34 87 5 87 C4.87916046 87.77594513 4.75832092 88.55189026 4.63381958 89.35134888 C3.49173849 96.67893741 2.34468886 104.00572291 1.19211006 111.33166695 C0.59979303 115.0976444 0.00937292 118.86389852 -0.57666016 122.63085938 C-1.14273246 126.26904889 -1.71385527 129.90641332 -2.28842545 133.54327011 C-2.50629259 134.92798784 -2.72236663 136.31298896 -2.93658066 137.69827652 C-3.23790388 139.64481654 -3.54631072 141.59025596 -3.85498047 143.53564453 C-4.02818817 144.64150909 -4.20139587 145.74737366 -4.37985229 146.88674927 C-5.0085326 150.04283515 -5.91725313 152.97255819 -7 156 C-8.875 155.375 -8.875 155.375 -11 154 C-16.82031617 140.82770552 -14.06669161 123.85362648 -12.9375 109.875 C-12.87642059 109.10207611 -12.81534119 108.32915222 -12.75241089 107.5328064 C-11.44688455 91.25366734 -9.6445202 75.02652505 -7.789814 58.80240631 C-7.56662163 56.84858075 -7.34480602 54.89459808 -7.12301636 52.94061279 C-5.10316223 35.23609051 -2.72782595 17.60941016 0 0 Z " fill="#000000" transform="translate(484,353)"/>
<path d="M0 0 C4.39277553 3.73784443 4.44521206 8.50262648 5 14 C5.28505077 19.8925622 5.19045878 25.79065233 5.125 31.6875 C5.11494496 33.27538495 5.1058236 34.8632761 5.09765625 36.45117188 C5.07585443 40.30093725 5.04146559 44.15039827 5 48 C4.45730469 48.18433594 3.91460937 48.36867188 3.35546875 48.55859375 C0.33876301 49.78158256 -2.23836461 50.87317843 -4.1003418 53.62792969 C-6.75597859 60.89711964 -7.35494612 69.09081092 -8.44619751 76.71981812 C-12.32438951 103.50787281 -17.77250407 129.94806326 -36 151 C-36.62261719 151.73347656 -37.24523437 152.46695313 -37.88671875 153.22265625 C-60.27461646 177.58181539 -99.85548585 180.33675991 -130.59106445 181.7956543 C-137.39372978 182.06540344 -144.1926578 182.09994467 -151 182 C-150.67 181.01 -150.34 180.02 -150 179 C-147.09299003 177.7444191 -144.23527505 176.66314285 -141.25 175.625 C-94.87592181 158.6930408 -53.65129868 136.17253184 -30.984375 90.4375 C-30.3166916 88.96113283 -29.65609671 87.48155265 -29 86 C-28.55857666 85.04826904 -28.11715332 84.09653809 -27.66235352 83.1159668 C-22.17579202 70.50561564 -19.48284323 57.17673044 -16.4375 43.8125 C-15.6088181 40.18329452 -14.77635126 36.55519887 -13.93092346 32.92985535 C-13.40896073 30.69150236 -12.89615301 28.45098498 -12.39463806 26.20796204 C-7.72605104 6.18084083 -7.72605104 6.18084083 0 0 Z " fill="#000000" transform="translate(469,525)"/>
<path d="M0 0 C0.99 0 1.98 0 3 0 C4.70046438 4.32085212 6.35586185 8.65743173 8 13 C8.41507813 14.05058594 8.83015625 15.10117187 9.2578125 16.18359375 C11.65772846 22.63651464 13.09600208 28.25580508 11 35 C8.9375 38.125 8.9375 38.125 6 40 C1.74948621 40.75412341 -0.4448142 41.01820655 -4.0703125 38.64453125 C-5.80573118 37.16556108 -7.42810312 35.65049172 -9 34 C-9.61488281 34.74056641 -9.61488281 34.74056641 -10.2421875 35.49609375 C-10.78101563 36.13675781 -11.31984375 36.77742188 -11.875 37.4375 C-12.40867187 38.07558594 -12.94234375 38.71367187 -13.4921875 39.37109375 C-15.94561237 42.02155534 -17.07808351 42.00640029 -20.8125 42.3125 C-23.85160002 42.25193822 -25.03790231 41.97978543 -27.8125 40.5 C-33.56377715 33.92711183 -33.42136311 26.40352868 -33.69140625 18.09765625 C-33.79324219 17.07542969 -33.89507813 16.05320312 -34 15 C-34.66 14.67 -35.32 14.34 -36 14 C-35.53199289 9.94393835 -35.12046792 6.53411321 -33 3 C-31.35 3.33 -29.7 3.66 -28 4 C-27.07853182 6.76440454 -26.82786402 8.65758692 -26.71875 11.52734375 C-26.68136719 12.40197266 -26.64398437 13.27660156 -26.60546875 14.17773438 C-26.57066406 15.08845703 -26.53585937 15.99917969 -26.5 16.9375 C-26.43088111 18.73843102 -26.35809756 20.53922597 -26.28125 22.33984375 C-26.25095703 23.13769287 -26.22066406 23.93554199 -26.18945312 24.75756836 C-26.00529358 26.93734333 -25.59337125 28.89827662 -25 31 C-19.17624838 31.30115186 -19.17624838 31.30115186 -14 29 C-12.71634613 26.43269226 -12.86724365 24.55347003 -12.875 21.6875 C-12.87242187 20.74261719 -12.86984375 19.79773438 -12.8671875 18.82421875 C-12.99491825 16.10806195 -13.44019744 13.6546887 -14 11 C-14.12782974 7.29293762 -14.17554079 4.52662236 -13 1 C-11.125 1.1875 -11.125 1.1875 -9 2 C-6.518485 6.73743772 -6.33531759 11.88700774 -5.87695312 17.1171875 C-5.38170624 21.84657218 -4.43672261 25.56327739 -1 29 C0.66617115 29.04063832 2.33388095 29.042721 4 29 C3.66700341 24.11605003 2.41835752 20.62239016 0.3125 16.1875 C-2.33607567 10.18658427 -2.12691271 6.12334106 0 0 Z " fill="#000000" transform="translate(550,312)"/>
<path d="M0 0 C1.24961991 3.74885974 1.28777454 5.24245786 0 9 C-2.57658757 11.41318266 -5.51312224 13.19732801 -8.5 15.0625 C-10.25389342 16.20828268 -12.00514756 17.35811433 -13.75390625 18.51171875 C-14.63836426 19.09228027 -15.52282227 19.6728418 -16.43408203 20.27099609 C-20.2207886 22.82260941 -23.83467401 25.57208253 -27.4375 28.375 C-28.82409976 29.45067423 -30.21082067 30.52619232 -31.59765625 31.6015625 C-32.30422363 32.14973633 -33.01079102 32.69791016 -33.73876953 33.26269531 C-37.91570676 36.47183862 -42.15062573 39.60374583 -46.375 42.75 C-52.78910196 47.53369833 -59.08460732 52.39493277 -65.19921875 57.55859375 C-67 59 -67 59 -68 59 C-69.09100477 55.34715441 -69.14583158 52.65323708 -68 49 C-64.46694375 44.75805952 -59.62890209 41.68660773 -55.15087891 38.52783203 C-53.09288409 37.06597828 -51.07922242 35.56081994 -49.07421875 34.02734375 C-36.52821265 24.43566364 -23.75309518 15.0926947 -10.625 6.3125 C-10.01261475 5.90241699 -9.40022949 5.49233398 -8.76928711 5.06982422 C-5.92348327 3.18814836 -3.10158455 1.42856234 0 0 Z " fill="#000000" transform="translate(571,257)"/>
<path d="M0 0 C-0.12635995 6.93493146 -0.12635995 6.93493146 -2.29248047 9.57568359 C-4.11002028 11.06845425 -5.97821945 12.38615069 -7.9375 13.6875 C-8.65043213 14.19095947 -9.36336426 14.69441895 -10.09790039 15.21313477 C-11.61448911 16.2826109 -13.13807528 17.3422227 -14.66796875 18.39257812 C-18.46893645 21.01250812 -22.19857815 23.73014547 -25.9375 26.4375 C-26.68531738 26.97503906 -27.43313477 27.51257813 -28.20361328 28.06640625 C-37.57350503 34.81353346 -46.70533975 41.87275431 -55.8125 48.96875 C-56.40571045 49.42934814 -56.9989209 49.88994629 -57.61010742 50.36450195 C-59.19705929 51.59778636 -60.78031819 52.83581872 -62.36328125 54.07421875 C-64.54118531 55.66489534 -66.54565169 56.90982628 -69 58 C-69.71057981 54.32867098 -70.00392982 52.52421197 -69 49 C-65.46653753 45.06166163 -61.26785729 42.08151234 -57 39 C-55.08322538 37.54180856 -53.16655634 36.08347832 -51.25 34.625 C-49.71860198 33.49232089 -48.18715802 32.35970216 -46.65429688 31.22900391 C-44.89039877 29.91857547 -43.13961686 28.59197049 -41.390625 27.26171875 C-33.84008577 21.52934706 -26.19394406 15.95107239 -18.4375 10.5 C-17.18839844 9.6188855 -17.18839844 9.6188855 -15.9140625 8.7199707 C-3.42850665 0 -3.42850665 0 0 0 Z " fill="#000000" transform="translate(625,575)"/>
</svg>

